<svg xmlns="http://www.w3.org/2000/svg" version="1.1" xmlns:xlink="http://www.w3.org/1999/xlink" xmlns:svgjs="http://svgjs.com/svgjs" width="1440" height="560" preserveAspectRatio="none" viewBox="0 0 1440 560"><g mask="url(&quot;#SvgjsMask1182&quot;)" fill="none"><path d="M1440 0L952.56 0L1440 22.08z" fill="rgba(255, 255, 255, .1)"></path><path d="M952.56 0L1440 22.08L1440 259.44L709.01 0z" fill="rgba(255, 255, 255, .075)"></path><path d="M709.01 0L1440 259.44L1440 371.58L408.38 0z" fill="rgba(255, 255, 255, .05)"></path><path d="M408.3800000000001 0L1440 371.58L1440 479.84L265.22000000000014 0z" fill="rgba(255, 255, 255, .025)"></path><path d="M0 560L692.65 560L0 467.19z" fill="rgba(0, 0, 0, .1)"></path><path d="M0 467.19L692.65 560L962.45 560L0 463.27z" fill="rgba(0, 0, 0, .075)"></path><path d="M0 463.27L962.45 560L1068.51 560L0 407.08z" fill="rgba(0, 0, 0, .05)"></path><path d="M0 407.08L1068.51 560L1321.52 560L0 240.04999999999998z" fill="rgba(0, 0, 0, .025)"></path></g><defs><mask id="SvgjsMask1182"><rect width="1440" height="560" fill="#ffffff"></rect></mask></defs></svg>